<?xml version="1.0" encoding="UTF-8"?>
<svg xmlns="http://www.w3.org/2000/svg" xmlns:xlink="http://www.w3.org/1999/xlink" width="43px" height="48px" viewBox="0 0 43 47" version="1.1">
<g id="surface1">
<path style=" stroke:none;fill-rule:nonzero;fill:rgb(77.647059%,23.921569%,7.843137%);fill-opacity:1;" d="M 40.308594 23.117188 C 40.308594 20.707031 38.328125 18.75 35.886719 18.75 C 35.730469 18.75 35.574219 18.757812 35.421875 18.773438 L 41.496094 1.070312 L 15.695312 1.070312 L 21.757812 18.757812 C 21.667969 18.753906 21.578125 18.75 21.488281 18.75 C 19.046875 18.75 17.066406 20.707031 17.066406 23.117188 C 17.066406 25.070312 18.359375 26.722656 20.144531 27.28125 C 19.203125 28.898438 18.015625 30.351562 16.667969 31.605469 C 14.839844 33.316406 12.742188 34.609375 10.476562 35.40625 C 7.777344 34.035156 6.503906 30.988281 7.652344 28.316406 C 7.78125 28.015625 7.914062 27.707031 8.042969 27.402344 C 9.996094 26.953125 11.453125 25.21875 11.453125 23.148438 C 11.453125 20.738281 9.476562 18.78125 7.035156 18.78125 C 4.59375 18.78125 2.613281 20.738281 2.613281 23.148438 C 2.613281 24.628906 3.359375 25.9375 4.496094 26.726562 C 3.402344 29.191406 1.792969 31.765625 1.292969 34.753906 C 0.691406 38.332031 1.292969 42.132812 4.421875 44.277344 C 11.71875 49.277344 19.632812 41.179688 27.980469 39.144531 C 31.007812 38.410156 34.328125 38.527344 36.992188 37 C 38.996094 35.855469 40.316406 33.957031 40.691406 31.824219 C 41.058594 29.71875 40.519531 27.621094 39.28125 25.917969 C 39.945312 25.132812 40.308594 24.144531 40.308594 23.117188 Z M 25.90625 23.132812 L 25.90625 23.117188 C 25.90625 21.535156 25.054688 20.144531 23.777344 19.378906 L 28.601562 9.734375 L 33.4375 19.484375 C 32.25 20.265625 31.46875 21.601562 31.46875 23.117188 C 31.46875 23.152344 31.46875 23.183594 31.46875 23.214844 Z M 25.90625 23.132812 "/>
<path style=" stroke:none;fill-rule:nonzero;fill:rgb(100%,100%,100%);fill-opacity:1;" d="M 41.386719 23.117188 C 41.386719 20.464844 39.453125 18.25 36.90625 17.777344 L 43 0.00390625 L 14.1875 0.00390625 L 20.292969 17.8125 C 17.832031 18.355469 15.988281 20.527344 15.988281 23.117188 C 15.988281 25.066406 17.027344 26.773438 18.589844 27.734375 C 17.835938 28.839844 16.949219 29.878906 15.929688 30.832031 C 14.3125 32.339844 12.511719 33.480469 10.570312 34.234375 C 8.613281 33.019531 7.785156 30.730469 8.644531 28.734375 L 8.710938 28.578125 L 8.839844 28.285156 C 10.988281 27.542969 12.53125 25.523438 12.53125 23.148438 C 12.53125 20.152344 10.066406 17.714844 7.03125 17.714844 C 4 17.714844 1.535156 20.152344 1.535156 23.148438 C 1.535156 24.664062 2.164062 26.035156 3.175781 27.019531 C 2.984375 27.414062 2.792969 27.808594 2.601562 28.203125 C 1.675781 30.082031 0.625 32.214844 0.226562 34.578125 C -0.558594 39.277344 0.710938 43.035156 3.808594 45.15625 C 5.6875 46.445312 7.59375 46.949219 9.515625 46.949219 C 13.132812 46.949219 16.789062 45.152344 20.367188 43.398438 C 22.945312 42.132812 25.609375 40.824219 28.242188 40.183594 C 29.21875 39.941406 30.226562 39.800781 31.292969 39.648438 C 33.410156 39.347656 35.597656 39.035156 37.535156 37.925781 C 39.78125 36.640625 41.320312 34.480469 41.753906 32.007812 C 42.125 29.882812 41.675781 27.753906 40.582031 25.949219 C 41.109375 25.097656 41.386719 24.117188 41.386719 23.117188 Z M 39.226562 23.117188 C 39.226562 24.941406 37.730469 26.421875 35.886719 26.421875 C 34.046875 26.421875 32.546875 24.941406 32.546875 23.117188 C 32.546875 21.296875 34.046875 19.816406 35.886719 19.816406 C 37.730469 19.816406 39.226562 21.296875 39.226562 23.117188 Z M 39.988281 2.140625 L 34.605469 17.832031 C 34.375 17.886719 34.144531 17.957031 33.925781 18.042969 L 28.605469 7.320312 L 23.273438 17.976562 C 23.042969 17.898438 22.804688 17.835938 22.5625 17.785156 L 17.199219 2.140625 Z M 21.488281 19.816406 C 23.328125 19.816406 24.828125 21.296875 24.828125 23.117188 C 24.828125 24.941406 23.328125 26.421875 21.488281 26.421875 C 19.644531 26.421875 18.148438 24.941406 18.148438 23.117188 C 18.148438 21.296875 19.644531 19.816406 21.488281 19.816406 Z M 7.03125 19.847656 C 8.875 19.847656 10.375 21.328125 10.375 23.148438 C 10.375 24.972656 8.875 26.453125 7.03125 26.453125 C 5.191406 26.453125 3.691406 24.972656 3.691406 23.148438 C 3.691406 21.328125 5.191406 19.847656 7.03125 19.847656 Z M 39.625 31.640625 C 39.300781 33.492188 38.144531 35.109375 36.453125 36.078125 C 34.875 36.980469 32.988281 37.25 30.984375 37.535156 C 29.914062 37.6875 28.804688 37.847656 27.722656 38.109375 C 24.859375 38.808594 22.089844 40.167969 19.40625 41.484375 C 14.042969 44.121094 9.40625 46.394531 5.039062 43.402344 C 1.835938 41.207031 1.984375 37.152344 2.359375 34.929688 C 2.703125 32.867188 3.636719 30.972656 4.542969 29.136719 C 4.695312 28.824219 4.847656 28.511719 5 28.199219 C 5.453125 28.378906 5.933594 28.5 6.417969 28.550781 C 5.5 31.550781 6.945312 34.816406 9.980469 36.355469 L 10.398438 36.566406 L 10.835938 36.414062 C 13.238281 35.566406 15.449219 34.210938 17.410156 32.382812 C 18.679688 31.199219 19.769531 29.890625 20.664062 28.496094 C 20.9375 28.535156 21.210938 28.554688 21.488281 28.554688 C 24.519531 28.554688 26.988281 26.117188 26.988281 23.117188 C 26.988281 21.507812 26.273438 20.054688 25.140625 19.058594 L 28.597656 12.152344 L 32.089844 19.191406 C 31.042969 20.183594 30.386719 21.574219 30.386719 23.117188 C 30.386719 26.117188 32.855469 28.554688 35.886719 28.554688 C 37.007812 28.554688 38.105469 28.214844 39.023438 27.582031 C 39.640625 28.832031 39.871094 30.238281 39.625 31.640625 Z M 39.625 31.640625 "/>
</g>
</svg>
